<?xml version="1.0" encoding="UTF-8"?>
<!DOCTYPE svg PUBLIC "-//W3C//DTD SVG 1.1//EN" "http://www.w3.org/Graphics/SVG/1.1/DTD/svg11.dtd">
<svg version="1.2" width="88.4mm" height="88.4mm" viewBox="0 0 8840 8840" preserveAspectRatio="xMidYMid" fill-rule="evenodd" stroke-width="28.222" stroke-linejoin="round" xmlns="http://www.w3.org/2000/svg" xmlns:ooo="http://xml.openoffice.org/svg/export" xmlns:xlink="http://www.w3.org/1999/xlink" xmlns:presentation="http://sun.com/xmlns/staroffice/presentation" xmlns:smil="http://www.w3.org/2001/SMIL20/" xmlns:anim="urn:oasis:names:tc:opendocument:xmlns:animation:1.0" xml:space="preserve">
 <defs class="ClipPathGroup">
  <clipPath id="presentation_clip_path" clipPathUnits="userSpaceOnUse">
   <rect x="0" y="0" width="8840" height="8840"/>
  </clipPath>
  <clipPath id="presentation_clip_path_shrink" clipPathUnits="userSpaceOnUse">
   <rect x="8" y="8" width="8823" height="8823"/>
  </clipPath>
 </defs>
 <defs class="TextShapeIndex">
  <g ooo:slide="id1" ooo:id-list="id3"/>
 </defs>
 <defs class="EmbeddedBulletChars">
  <g id="bullet-char-template-57356" transform="scale(0.00048828125,-0.00048828125)">
   <path d="M 580,1141 L 1163,571 580,0 -4,571 580,1141 Z"/>
  </g>
  <g id="bullet-char-template-57354" transform="scale(0.00048828125,-0.00048828125)">
   <path d="M 8,1128 L 1137,1128 1137,0 8,0 8,1128 Z"/>
  </g>
  <g id="bullet-char-template-10146" transform="scale(0.00048828125,-0.00048828125)">
   <path d="M 174,0 L 602,739 174,1481 1456,739 174,0 Z M 1358,739 L 309,1346 659,739 1358,739 Z"/>
  </g>
  <g id="bullet-char-template-10132" transform="scale(0.00048828125,-0.00048828125)">
   <path d="M 2015,739 L 1276,0 717,0 1260,543 174,543 174,936 1260,936 717,1481 1274,1481 2015,739 Z"/>
  </g>
  <g id="bullet-char-template-10007" transform="scale(0.00048828125,-0.00048828125)">
   <path d="M 0,-2 C -7,14 -16,27 -25,37 L 356,567 C 262,823 215,952 215,954 215,979 228,992 255,992 264,992 276,990 289,987 310,991 331,999 354,1012 L 381,999 492,748 772,1049 836,1024 860,1049 C 881,1039 901,1025 922,1006 886,937 835,863 770,784 769,783 710,716 594,584 L 774,223 C 774,196 753,168 711,139 L 727,119 C 717,90 699,76 672,76 641,76 570,178 457,381 L 164,-76 C 142,-110 111,-127 72,-127 30,-127 9,-110 8,-76 1,-67 -2,-52 -2,-32 -2,-23 -1,-13 0,-2 Z"/>
  </g>
  <g id="bullet-char-template-10004" transform="scale(0.00048828125,-0.00048828125)">
   <path d="M 285,-33 C 182,-33 111,30 74,156 52,228 41,333 41,471 41,549 55,616 82,672 116,743 169,778 240,778 293,778 328,747 346,684 L 369,508 C 377,444 397,411 428,410 L 1163,1116 C 1174,1127 1196,1133 1229,1133 1271,1133 1292,1118 1292,1087 L 1292,965 C 1292,929 1282,901 1262,881 L 442,47 C 390,-6 338,-33 285,-33 Z"/>
  </g>
  <g id="bullet-char-template-9679" transform="scale(0.00048828125,-0.00048828125)">
   <path d="M 813,0 C 632,0 489,54 383,161 276,268 223,411 223,592 223,773 276,916 383,1023 489,1130 632,1184 813,1184 992,1184 1136,1130 1245,1023 1353,916 1407,772 1407,592 1407,412 1353,268 1245,161 1136,54 992,0 813,0 Z"/>
  </g>
  <g id="bullet-char-template-8226" transform="scale(0.00048828125,-0.00048828125)">
   <path d="M 346,457 C 273,457 209,483 155,535 101,586 74,649 74,723 74,796 101,859 155,911 209,963 273,989 346,989 419,989 480,963 531,910 582,859 608,796 608,723 608,648 583,586 532,535 482,483 420,457 346,457 Z"/>
  </g>
  <g id="bullet-char-template-8211" transform="scale(0.00048828125,-0.00048828125)">
   <path d="M -4,459 L 1135,459 1135,606 -4,606 -4,459 Z"/>
  </g>
  <g id="bullet-char-template-61548" transform="scale(0.00048828125,-0.00048828125)">
   <path d="M 173,740 C 173,903 231,1043 346,1159 462,1274 601,1332 765,1332 928,1332 1067,1274 1183,1159 1299,1043 1357,903 1357,740 1357,577 1299,437 1183,322 1067,206 928,148 765,148 601,148 462,206 346,322 231,437 173,577 173,740 Z"/>
  </g>
 </defs>
 <g>
  <g id="id2" class="Master_Slide">
   <g id="bg-id2" class="Background"/>
   <g id="bo-id2" class="BackgroundObjects"/>
  </g>
 </g>
 <g class="SlideGroup">
  <g>
   <g id="container-id1">
    <g id="id1" class="Slide" clip-path="url(#presentation_clip_path)">
     <g class="Page">
      <g class="Graphic">
       <g id="id3">
        <rect class="BoundingBox" stroke="none" fill="none" x="0" y="0" width="27120" height="8837"/>
        <path fill="rgb(29,89,175)" stroke="none" d="M 4424,263 C 2127,263 268,2124 268,4418 268,5259 518,6044 948,6698 1693,7827 2970,8573 4424,8573 5878,8573 7162,7828 7906,6698 8289,6116 8526,5434 8574,4699 L 5239,4693 C 5021,4693 4881,4850 4881,5045 L 4881,6493 5620,6493 5620,5567 C 5620,5480 5662,5432 5755,5432 L 7496,5438 C 7336,5918 7070,6347 6722,6698 6134,7287 5320,7647 4424,7647 3528,7647 2720,7286 2132,6698 1553,6114 1195,5307 1195,4418 1195,2634 2638,1189 4424,1189 5480,1189 6419,1696 7009,2478 L 6763,2478 5216,2478 C 3737,2478 2730,3479 2730,4957 L 2730,6493 3469,6493 3469,4957 C 3469,3886 4144,3216 5216,3216 L 8404,3216 C 7889,1510 6301,263 4424,263 L 4424,263 Z M 5098,3709 C 4460,3709 3944,4220 3944,4858 L 3944,6493 4407,6493 4407,4858 C 4407,4475 4716,4166 5098,4166 L 8574,4166 C 8566,4010 8548,3860 8522,3709 L 5098,3709 5098,3709 Z"/>
        <path fill="rgb(148,151,154)" stroke="none" d="M 10567,2343 L 10567,6493 11599,6493 11599,4752 13334,4752 13334,6493 14348,6493 14348,2343 13334,2343 13334,3932 11599,3932 11599,2343 10567,2343 10567,2343 Z M 15051,2343 L 16188,6493 17132,6493 17742,4354 C 17837,4010 17923,3592 17923,3586 L 17941,3586 C 17941,3592 18017,4010 18105,4354 L 18650,6493 19600,6493 20749,2343 19776,2343 19289,4307 C 19207,4643 19137,5085 19137,5092 L 19113,5092 C 19113,5085 19040,4627 18949,4277 L 18463,2343 17460,2343 16956,4283 C 16866,4620 16780,5085 16780,5092 L 16775,5092 C 16775,5085 16699,4655 16616,4318 L 16142,2343 15051,2343 15051,2343 Z M 21153,2343 L 22290,6493 23240,6493 23849,4354 C 23942,4010 24031,3592 24031,3586 L 24043,3586 C 24043,3592 24122,4010 24213,4354 L 24758,6493 25702,6493 26851,2343 25878,2343 25391,4307 C 25309,4643 25239,5085 25239,5092 L 25221,5092 C 25221,5085 25145,4627 25057,4277 L 24565,2343 23562,2343 23058,4283 C 22970,4620 22888,5085 22888,5092 L 22876,5092 C 22876,5085 22806,4655 22724,4318 L 22243,2343 21153,2343 21153,2343 Z"/>
       </g>
      </g>
     </g>
    </g>
   </g>
  </g>
 </g>
</svg>